<?xml version="1.0" encoding="utf-8"?>
<!-- Generator: Adobe Illustrator 20.1.0, SVG Export Plug-In . SVG Version: 6.00 Build 0)  -->
<svg version="1.1" id="Layer_1" xmlns="http://www.w3.org/2000/svg" xmlns:xlink="http://www.w3.org/1999/xlink" x="0px" y="0px"
	 width="118.4px" height="118.1px" viewBox="0 0 118.4 118.1" style="enable-background:new 0 0 118.4 118.1;" xml:space="preserve"
	>
<path d="M132.2,0c3.1,0,6.2,0,9.3,0c0,36.1,0,72.3,0,108.4c9.8,0,19.5,0,29.2,0c0,3.1,0,6.2,0,9.3c-12.8-0.2-25.7,0.2-38.6-0.2
	C132.2,78.3,132.2,39.1,132.2,0z"/>
<path d="M234.6,0c4.7,0,9.4,0,14,0c6.7,34.3,13,68.7,19.9,102.9l-0.9,0.4c0.3,0.2,0.9,0.4,1.2,0.6C275.6,69.2,282.3,34.6,289,0
	c4.8,0,9.5,0,14.3,0c0,39.2,0,78.4,0,117.5c-3.1,0-6.3,0-9.4,0c0-29.8,0-59.5,0-89.3c0-3.6,0.2-7.2-0.4-10.8
	c-6.1,33.4-12.9,66.7-19.3,100.1c-3.6,0-7.1,0-10.7,0c-6.6-33.1-12.7-66.3-19.5-99.3c-0.3,33.1,0,66.2-0.1,99.3c-3.1,0-6.2,0-9.3,0
	C234.6,78.3,234.6,39.1,234.6,0z"/>
<path d="M444.2-0.1c3.1,0,6.2,0,9.3,0c0,3.5,0,7,0,10.6c-3.1,0-6.2,0-9.3,0C444.2,7,444.2,3.5,444.2-0.1z"/>
<path d="M115.9,42.1c-4.3-14.4-14.3-27-27.4-34.4c-12.2-7.1-27-9.2-40.9-6.6C25.8,5.2,7.1,22.6,2,44.2c-3.5,12.6-2.1,26.2,2.8,38.2
	c6.5,15,19.4,27,34.8,32.4c13.5,4.8,28.9,4.3,42.1-1.1c12.9-5.3,23.8-15.3,30.1-27.7C118.8,72.6,120.2,56.5,115.9,42.1z M85.2,103
	c0-23.7,0-47.4,0-71.1c-3,0-6,0-9,0c0,24.9,0.1,49.8,0,74.7c-3.4,2.6-8.4,2.5-12.6,3.3c0-14,0-28,0-42c-3,0-6,0-9,0c0,14,0,28,0,42
	c-4.2-0.5-8.3-1.4-12.3-2.6c0-25.4,0-50.9,0-76.3c-3,0-6,0-9,0c0,24,0,48,0,72.1c-10.5-6.3-18.8-16.3-22.6-28
	c-4.3-13.1-3.1-27.9,3.5-40.1c7.5-14.2,22.1-24.3,38-26.4c14.9-2.2,30.5,2.8,41.5,13c9.2,8.4,15.2,20.3,16.3,32.8
	C112.1,73.6,101.8,93.2,85.2,103z"/>
<path d="M377.2,13.2c3.1-0.3,6.1-0.6,9.2-1c0.1,6,0,11.9,0,17.9c3.8-0.1,7.5,0,11.3,0c0,3.1,0,6.3,0,9.4c-3.8,0-7.5,0-11.3,0
	c0,21.9,0,43.9,0,65.8c-0.3,2.2,1.5,3.7,3.5,4.2c0.1,3,0,6,0,9.1c-6.6,0.3-12.8-5.5-12.8-12.2c-0.1-22.3,0-44.5,0-66.8
	c-3.8-0.1-7.6,0-11.4,0c0-3.1,0-6.3,0-9.4c3.8,0,7.6,0,11.4,0C377.2,24.4,377.1,18.8,377.2,13.2z"/>
<path d="M444.2,19.4c3.1,0,6.2,0,9.3,0c0,32.8,0,65.5,0,98.3c-3.1,0-6.2,0-9.3-0.2C444.2,84.8,444.2,52.1,444.2,19.4z"/>
<path d="M415.9,36.9c4-6.1,11.8-7.6,18.7-7.8c0.1,3.2,0.1,6.3,0,9.5c-4.2,0.2-8.8-0.8-12.5,1.7c-3.3,2.1-5.1,6-4.9,9.9
	c0,22.4,0,44.9-0.2,67.3c-3.1,0.1-6.2,0.2-9.2,0.2c0-29.2,0-58.4,0-87.6c2.1,0,4.3,0,6.5,0C414.8,32.3,415.4,34.6,415.9,36.9z"/>
<path d="M477,32.1c4.6-2.9,10.4-3.5,15.6-2.2c7.6,2,13.5,9.4,13.8,17.3c0.1,3.8,0,7.7,0,11.5c-3,0.4-6,0.8-9.1,1.2
	C497,55,498,50,496.7,45.2c-1.8-5.6-9-8.5-14.2-5.6c-3.5,1.7-5.6,5.6-5.4,9.4c0,16.7,0,33.4,0,50.2c-0.2,5.2,4.6,10.1,9.9,9.9
	c5,0.3,9.7-3.9,10.1-8.8c0.2-3.9,0-7.8,0.1-11.6c3,0,6.1,0.2,9.1,0.3c-0.1,4.4,0.2,8.8-0.2,13.2c-1.2,9.2-9.9,16.8-19.2,16.2
	c-10,0.5-18.9-8.3-19.2-18.2c-0.1-17,0-34-0.1-51C467.6,42.4,471.1,35.6,477,32.1z"/>
<path d="M357.7,87.7c-3.1,0.4-6.2,0.8-9.3,1.1c-0.1,3.8,0.1,7.7-0.1,11.5c-0.4,5-5.2,9.3-10.2,8.9c-5.2,0.2-9.9-4.6-9.8-9.9
	c0-7.9,0-15.9,0-23.8c9.8,0,19.6,0,29.4,0c0-9.1,0-18.2,0-27.3c0-7-4.3-13.8-10.6-16.9c-8.9-4.7-21.2-1.1-25.8,8
	c-1.7,3-2.4,6.5-2.4,10c0,16.7,0,33.3,0,50c-0.1,7.2,4.2,14.1,10.6,17.3c3.8,2.1,8.4,2.2,12.6,1.7c8.1-1.4,14.8-8.7,15.5-16.9
	C357.8,96.7,357.6,92.2,357.7,87.7z M328.3,47.4c0.4-6,7.1-10.3,12.8-8.5c4,1.2,7.1,5,7.2,9.2c0.1,6,0,12,0,18c-6.7,0-13.4,0-20.1,0
	C328.3,59.9,328.1,53.6,328.3,47.4z"/>
<path d="M217.7,105.3c-0.1-17.4,0-34.7-0.1-52.1c0-4.1,0.4-8.3-1.2-12.2c-2.7-7-9.9-12-17.4-11.6c-6.9-0.2-13.3,4.3-16.3,10.4
	c-2.9,6-1.5,12.9-1.8,19.3c3.1-0.3,6.3-0.6,9.4-1.1c0.2-4.4-0.5-8.9,0.4-13.2c1.7-6.1,10.2-8.2,14.7-3.8c4.1,3.6,2.6,9.5,2.9,14.3
	c0.4,5.3-3.3,10-7.6,12.7c-4.5,2.7-9.1,5.1-13.6,7.8c-4.8,2.8-8.4,7.9-8.3,13.6c0.1,7.2-1.1,15.4,3.8,21.5c6.3,9.1,20.7,10.4,28.7,3
	c2.6,2.4,6,4,9.6,3.9c0-3,0-6,0-8.9C219.5,108,217.5,107.1,217.7,105.3z M208.3,99.3c0.1,5.8-5.6,10.8-11.4,9.8
	c-5.7-0.5-9.6-6.4-8.7-11.9c0.5-4.1-1.5-9.5,2.3-12.6c5.8-4,12.3-6.6,17.9-10.9C208.3,82.3,208.4,90.8,208.3,99.3z"/>
</svg>
